<?xml version="1.0" encoding="UTF-8"?>
<svg width="512" height="512" viewBox="0 0 512 512" fill="none" xmlns="http://www.w3.org/2000/svg">
  <rect width="512" height="512" rx="100" fill="url(#gradient)"/>
  <path d="M165 160C165 154.477 169.477 150 175 150H315C320.523 150 325 154.477 325 160C325 165.523 320.523 170 315 170H175C169.477 170 165 165.523 165 160Z" fill="white"/>
  <path d="M185 190C179.477 190 175 194.477 175 200V280C175 285.523 179.477 290 185 290H315C320.523 290 325 285.523 325 280V200C325 194.477 320.523 190 315 190H185ZM195 270V210H305V270H195Z" fill="white"/>
  <path d="M175 320C175 314.477 179.477 310 185 310H315C320.523 310 325 314.477 325 320C325 325.523 320.523 330 315 330H185C179.477 330 175 325.523 175 320Z" fill="white"/>
  <defs>
    <linearGradient id="gradient" x1="0" y1="0" x2="512" y2="512" gradientUnits="userSpaceOnUse">
      <stop stop-color="#3B82F6"/>
      <stop offset="1" stop-color="#8B5CF6"/>
    </linearGradient>
  </defs>
</svg>
